<svg width="32" height="32" viewBox="0 0 32 32" fill="none" xmlns="http://www.w3.org/2000/svg">
<g clip-path="url(#clip0_1195_1745)">
<path d="M31.5 27.5H29.09V4C29.09 3.86739 29.0374 3.74021 28.9436 3.64645C28.8498 3.55268 28.7226 3.5 28.59 3.5H19.71C19.5774 3.5 19.4502 3.55268 19.3565 3.64645C19.2627 3.74021 19.21 3.86739 19.21 4V7H7.4C7.26739 7 7.14022 7.05268 7.04645 7.14645C6.95268 7.24022 6.9 7.36739 6.9 7.5V16.5H3.4C3.26739 16.5 3.14021 16.5527 3.04645 16.6464C2.95268 16.7402 2.9 16.8674 2.9 17V27.5H0.5C0.367392 27.5 0.240215 27.5527 0.146447 27.6464C0.0526784 27.7402 0 27.8674 0 28C0 28.1326 0.0526784 28.2598 0.146447 28.3536C0.240215 28.4473 0.367392 28.5 0.5 28.5H31.5C31.6326 28.5 31.7598 28.4473 31.8536 28.3536C31.9473 28.2598 32 28.1326 32 28C32 27.8674 31.9473 27.7402 31.8536 27.6464C31.7598 27.5527 31.6326 27.5 31.5 27.5ZM7.88502 8H22.93V11.625H16.115V10C16.1163 9.90272 16.0793 9.80883 16.0119 9.73865C15.9445 9.66847 15.8522 9.62764 15.755 9.62502H9.32502C9.22776 9.62764 9.13546 9.66847 9.06808 9.73865C9.00071 9.80883 8.96368 9.90272 8.96502 10V17C8.96368 17.0973 9.00071 17.1912 9.06808 17.2614C9.13546 17.3315 9.22776 17.3724 9.32502 17.375H15.755C15.8523 17.3724 15.9446 17.3315 16.012 17.2614C16.0794 17.1912 16.1164 17.0973 16.115 17V15.375H22.93V19.5H7.88502V8ZM25.155 27.5H20.685V20.5H23.4149C23.5475 20.5 23.6747 20.4473 23.7685 20.3536C23.8622 20.2598 23.9149 20.1326 23.9149 20V17.5H25.1699L25.155 27.5ZM19.715 20.5V27.5H13.765V20.5H19.715ZM9.71498 16.625V13.875H11.955V16.625H9.71498ZM15.415 10.375V13.125H12.655V10.375H15.415ZM11.955 13.125H9.68997V10.375H11.93L11.955 13.125ZM12.68 13.875H15.415V16.625H12.655L12.68 13.875ZM16.14 12.375H22.93V14.625H16.115L16.14 12.375ZM3.88 17.5H6.91498V20C6.91498 20.1326 6.96766 20.2598 7.06143 20.3536C7.1552 20.4473 7.28238 20.5 7.41498 20.5H8.85499V27.5H3.88V17.5ZM9.81003 27.5V20.5H12.81V27.5H9.81003ZM26.125 27.5V17C26.125 16.8674 26.0723 16.7402 25.9786 16.6464C25.8848 16.5527 25.7576 16.5 25.625 16.5H23.9V7.5C23.9 7.36739 23.8473 7.24022 23.7536 7.14645C23.6598 7.05268 23.5326 7 23.4 7H20.195V4.5H28.12V27.5H26.125Z" fill="#D6A279"/>
</g>
<defs>
<clipPath id="clip0_1195_1745">
<rect width="32" height="32" fill="white"/>
</clipPath>
</defs>
</svg>
