<svg width="16" height="16" viewBox="0 0 16 16" fill="none" xmlns="http://www.w3.org/2000/svg">
<path fill-rule="evenodd" clip-rule="evenodd" d="M3.28063 13.9799H12.7213V14.5854H3.28063V13.9799ZM11.3823 10.4153H12.6335L13.2835 12.5821C13.3946 12.9973 13.2271 13.2967 12.8881 13.5099H11.6577C11.7973 13.221 11.8586 12.8644 11.7836 12.4772L11.3823 10.4153ZM9.72045 10.4153H10.9027L11.3205 12.5588C11.3944 12.9838 11.2806 13.3077 11.0952 13.5099H9.88418C9.97858 13.2272 10.0177 12.8839 9.9713 12.4932L9.72045 10.4153ZM8.23618 10.4153H9.24738L9.50392 12.5465C9.54818 12.9659 9.47796 13.3038 9.37681 13.5097H8.23618V10.4153ZM6.75458 10.4153H7.7665V13.5097H6.62303C6.52294 13.3021 6.45432 12.9611 6.49894 12.5465V12.5444C6.49894 12.5437 6.49805 12.5437 6.49894 12.5429L6.75458 10.4153ZM5.09823 10.4153H6.28045L6.03138 12.4932C5.98872 12.8818 6.02214 13.2261 6.11583 13.5099H4.91281C4.7233 13.3088 4.60721 12.9883 4.68258 12.5588L5.09823 10.4153ZM3.36952 10.4153H4.61841L4.21752 12.4772C4.1425 12.8661 4.20632 13.2226 4.34818 13.5099H3.11405C2.7761 13.2967 2.59547 12.994 2.71938 12.5821L3.36952 10.4153ZM3.19423 9.33815H12.8083C12.9805 9.33815 13.11 9.4697 13.11 9.6409C13.11 9.81317 12.9805 9.94473 12.8083 9.94473H3.19423C3.02214 9.94473 2.89058 9.81317 2.89058 9.6409C2.88996 9.6009 2.89739 9.56117 2.91244 9.5241C2.92749 9.48703 2.94984 9.45336 2.97818 9.42511C3.00651 9.39686 3.04024 9.3746 3.07736 9.35966C3.11448 9.34472 3.15422 9.3374 3.19423 9.33815ZM3.19423 8.86881C2.76916 8.86881 2.42125 9.21673 2.42125 9.64108C2.42125 9.96055 2.61841 10.2363 2.89627 10.354L2.26481 12.4567C2.09147 13.0349 2.37218 13.5613 2.80987 13.8688V14.8199C2.80969 14.8509 2.8156 14.8816 2.82729 14.9103C2.83897 14.939 2.8562 14.9651 2.87797 14.9871C2.89975 15.0091 2.92565 15.0266 2.9542 15.0386C2.98275 15.0507 3.01339 15.0569 3.04436 15.0571H12.9562C13.0867 15.0571 13.1932 14.9504 13.1923 14.8199V13.8688C13.6293 13.5613 13.9107 13.0349 13.7377 12.4567L13.1064 10.3538C13.3843 10.2361 13.5816 9.96037 13.5816 9.6409C13.5816 9.21655 13.2325 8.86864 12.8083 8.86864L3.19423 8.86881ZM10.2778 2.39379C10.6818 2.83842 10.9436 3.3937 11.0296 3.98828H8.5761L10.2778 2.39379ZM5.72383 2.39379L7.42481 3.98828H4.97201C5.05854 3.39387 5.32029 2.83874 5.72383 2.39379ZM8.23618 1.40037C8.88063 1.44855 9.46765 1.6889 9.93805 2.06881L8.23618 3.6633V1.40037ZM7.7665 1.40037V3.6633L6.06481 2.06881C6.53521 1.6889 7.12134 1.44855 7.7665 1.40037ZM8.00098 0.916992C6.04721 0.916992 4.4657 2.4889 4.4657 4.43433V7.95201C4.4657 8.26668 4.93681 8.26668 4.93681 7.95201V4.45761H11.0655V7.95201C11.0638 7.98392 11.0687 8.01584 11.0798 8.04581C11.0909 8.07578 11.108 8.10317 11.13 8.12632C11.152 8.14946 11.1785 8.16787 11.2079 8.18042C11.2373 8.19297 11.2689 8.19939 11.3009 8.1993C11.4349 8.1993 11.5423 8.08748 11.535 7.95201V4.43433C11.5352 2.4889 9.95458 0.916992 8.00098 0.916992Z" fill="#444444"/>
</svg>
