<svg width="14" height="14" viewBox="0 0 14 14" fill="none" xmlns="http://www.w3.org/2000/svg">
<g clip-path="url(#clip0_1488_3544)">
<path d="M13.663 6.08933C13.6626 6.08903 13.6622 6.08859 13.6619 6.08826L7.93984 0.377618C7.69593 0.134039 7.37165 0 7.02675 0C6.68182 0 6.35754 0.134039 6.11354 0.377591L0.394447 6.08536C0.392529 6.08728 0.390502 6.0893 0.388693 6.09124C-0.112183 6.59399 -0.111307 7.40971 0.391159 7.91119C0.620693 8.14041 0.923762 8.27309 1.24795 8.28706C1.26121 8.28834 1.2745 8.28897 1.28787 8.28897H1.51582V12.4916C1.51582 13.3233 2.1939 14 3.02727 14H5.26593C5.49291 14 5.67689 13.8163 5.67689 13.5898V10.2949C5.67689 9.91544 5.98628 9.60675 6.36653 9.60675H7.68694C8.06721 9.60675 8.37647 9.91547 8.37647 10.2949V13.5899C8.37647 13.8163 8.56045 14 8.78743 14H11.0261C11.8596 14 12.5375 13.3234 12.5375 12.4916V8.289H12.749C13.0938 8.289 13.4181 8.15493 13.6622 7.9113C14.1652 7.40908 14.1654 6.59185 13.663 6.0893L13.663 6.08933ZM13.081 7.33134C13.0375 7.375 12.9858 7.40963 12.9288 7.43321C12.8718 7.45679 12.8107 7.46885 12.749 7.46871H12.1266C11.8996 7.46871 11.7156 7.6523 11.7156 7.87887V12.4916C11.7156 12.871 11.4063 13.1797 11.0261 13.1797H9.19839V10.2949C9.19839 9.4632 8.52039 8.78644 7.68691 8.78644H6.36656C5.53308 8.78644 4.85499 9.4632 4.85499 10.2949V13.1797H3.02732C2.64716 13.1797 2.33776 12.871 2.33776 12.4916V7.87884C2.33776 7.65227 2.15379 7.46869 1.9268 7.46869H1.31505C1.30864 7.46823 1.30222 7.46794 1.29579 7.46781C1.17335 7.46568 1.05853 7.4172 0.972502 7.3312C0.789488 7.14855 0.789488 6.85132 0.972502 6.66855C0.972584 6.66855 0.972584 6.66844 0.972694 6.66833L0.973022 6.66801L6.69486 0.95758C6.73832 0.913913 6.79004 0.879294 6.84701 0.85573C6.90398 0.832167 6.96508 0.820129 7.02675 0.820314C7.15206 0.820314 7.2699 0.869013 7.35861 0.95758L13.0792 6.66686L13.0818 6.66943C13.2639 6.85241 13.2636 7.14904 13.081 7.33134Z" fill="#444444"/>
</g>
<defs>
<clipPath id="clip0_1488_3544">
<rect width="14" height="14" fill="white"/>
</clipPath>
</defs>
</svg>
