<svg width="16" height="16" viewBox="0 0 16 16" fill="none" xmlns="http://www.w3.org/2000/svg">
<path fill-rule="evenodd" clip-rule="evenodd" d="M1.68359 4.1755C1.68359 3.82187 1.82407 3.48274 2.07412 3.23269C2.32417 2.98264 2.66331 2.84216 3.01693 2.84216H5.68359C6.03722 2.84216 6.37635 2.98264 6.6264 3.23269C6.87645 3.48274 7.01693 3.82187 7.01693 4.1755V6.84216C7.01693 7.19579 6.87645 7.53492 6.6264 7.78497C6.37635 8.03502 6.03722 8.1755 5.68359 8.1755H3.01693C2.66331 8.1755 2.32417 8.03502 2.07412 7.78497C1.82407 7.53492 1.68359 7.19579 1.68359 6.84216V4.1755ZM3.01693 3.50883H5.68359C5.8604 3.50883 6.02997 3.57907 6.155 3.70409C6.28002 3.82912 6.35026 3.99869 6.35026 4.1755V6.84216C6.35026 7.01897 6.28002 7.18854 6.155 7.31357C6.02997 7.43859 5.8604 7.50883 5.68359 7.50883H3.01693C2.84012 7.50883 2.67055 7.43859 2.54552 7.31357C2.4205 7.18854 2.35026 7.01897 2.35026 6.84216V4.1755C2.35026 3.99869 2.4205 3.82912 2.54552 3.70409C2.67055 3.57907 2.84012 3.50883 3.01693 3.50883ZM1.68359 10.1755C1.68359 9.82187 1.82407 9.48274 2.07412 9.23269C2.32417 8.98264 2.66331 8.84216 3.01693 8.84216H5.68359C6.03722 8.84216 6.37635 8.98264 6.6264 9.23269C6.87645 9.48274 7.01693 9.82187 7.01693 10.1755V12.8422C7.01693 13.1958 6.87645 13.5349 6.6264 13.785C6.37635 14.035 6.03722 14.1755 5.68359 14.1755H3.01693C2.66331 14.1755 2.32417 14.035 2.07412 13.785C1.82407 13.5349 1.68359 13.1958 1.68359 12.8422V10.1755ZM3.01693 9.50883H5.68359C5.8604 9.50883 6.02997 9.57907 6.155 9.70409C6.28002 9.82912 6.35026 9.99868 6.35026 10.1755V12.8422C6.35026 13.019 6.28002 13.1885 6.155 13.3136C6.02997 13.4386 5.8604 13.5088 5.68359 13.5088H3.01693C2.84012 13.5088 2.67055 13.4386 2.54552 13.3136C2.4205 13.1885 2.35026 13.019 2.35026 12.8422V10.1755C2.35026 9.99868 2.4205 9.82912 2.54552 9.70409C2.67055 9.57907 2.84012 9.50883 3.01693 9.50883ZM9.68359 2.84216C9.32997 2.84216 8.99083 2.98264 8.74079 3.23269C8.49074 3.48274 8.35026 3.82187 8.35026 4.1755V6.84216C8.35026 7.19579 8.49074 7.53492 8.74079 7.78497C8.99083 8.03502 9.32997 8.1755 9.68359 8.1755H12.3503C12.7039 8.1755 13.043 8.03502 13.2931 7.78497C13.5431 7.53492 13.6836 7.19579 13.6836 6.84216V4.1755C13.6836 3.82187 13.5431 3.48274 13.2931 3.23269C13.043 2.98264 12.7039 2.84216 12.3503 2.84216H9.68359ZM12.3503 3.50883H9.68359C9.50678 3.50883 9.33721 3.57907 9.21219 3.70409C9.08717 3.82912 9.01693 3.99869 9.01693 4.1755V6.84216C9.01693 7.01897 9.08717 7.18854 9.21219 7.31357C9.33721 7.43859 9.50678 7.50883 9.68359 7.50883H12.3503C12.5271 7.50883 12.6966 7.43859 12.8217 7.31357C12.9467 7.18854 13.0169 7.01897 13.0169 6.84216V4.1755C13.0169 3.99869 12.9467 3.82912 12.8217 3.70409C12.6966 3.57907 12.5271 3.50883 12.3503 3.50883ZM8.35026 10.1755C8.35026 9.82187 8.49074 9.48274 8.74079 9.23269C8.99083 8.98264 9.32997 8.84216 9.68359 8.84216H12.3503C12.7039 8.84216 13.043 8.98264 13.2931 9.23269C13.5431 9.48274 13.6836 9.82187 13.6836 10.1755V12.8422C13.6836 13.1958 13.5431 13.5349 13.2931 13.785C13.043 14.035 12.7039 14.1755 12.3503 14.1755H9.68359C9.32997 14.1755 8.99083 14.035 8.74079 13.785C8.49074 13.5349 8.35026 13.1958 8.35026 12.8422V10.1755ZM9.68359 9.50883H12.3503C12.5271 9.50883 12.6966 9.57907 12.8217 9.70409C12.9467 9.82912 13.0169 9.99868 13.0169 10.1755V12.8422C13.0169 13.019 12.9467 13.1885 12.8217 13.3136C12.6966 13.4386 12.5271 13.5088 12.3503 13.5088H9.68359C9.50678 13.5088 9.33721 13.4386 9.21219 13.3136C9.08717 13.1885 9.01693 13.019 9.01693 12.8422V10.1755C9.01693 9.99868 9.08717 9.82912 9.21219 9.70409C9.33721 9.57907 9.50678 9.50883 9.68359 9.50883Z" fill="#444444"/>
</svg>
