<svg width="16" height="16" viewBox="0 0 16 16" fill="none" xmlns="http://www.w3.org/2000/svg">
<path d="M8.00279 7.83484C8.32402 7.83484 8.59853 7.72046 8.8263 7.49169C9.05408 7.26293 9.16797 6.98793 9.16797 6.66669C9.16797 6.34546 9.05359 6.07095 8.82482 5.84317C8.59606 5.61539 8.32106 5.50151 7.99982 5.50151C7.67859 5.50151 7.40408 5.61589 7.1763 5.84466C6.94852 6.07341 6.83464 6.34841 6.83464 6.66965C6.83464 6.99089 6.94902 7.26539 7.17779 7.49317C7.40654 7.72095 7.68154 7.83484 8.00279 7.83484ZM8.0013 13.3515C9.47908 12.0071 10.5707 10.7876 11.2763 9.69317C11.9819 8.59873 12.3346 7.63484 12.3346 6.80151C12.3346 5.49273 11.9163 4.42109 11.0798 3.58659C10.2432 2.75209 9.21705 2.33484 8.0013 2.33484C6.78556 2.33484 5.7594 2.75209 4.92284 3.58659C4.08626 4.42109 3.66797 5.49273 3.66797 6.80151C3.66797 7.63484 4.02908 8.59873 4.7513 9.69317C5.47352 10.7876 6.55686 12.0071 8.0013 13.3515ZM8.0013 14.6682C6.21241 13.1459 4.8763 11.7321 3.99297 10.4265C3.10964 9.12095 2.66797 7.91262 2.66797 6.80151C2.66797 5.13484 3.20408 3.80706 4.2763 2.81817C5.34852 1.82928 6.59019 1.33484 8.0013 1.33484C9.41241 1.33484 10.6541 1.82928 11.7263 2.81817C12.7985 3.80706 13.3346 5.13484 13.3346 6.80151C13.3346 7.91262 12.893 9.12095 12.0096 10.4265C11.1263 11.7321 9.79019 13.1459 8.0013 14.6682Z" fill="#444444"/>
</svg>
