<svg width="26" height="26" viewBox="0 0 26 26" fill="none" xmlns="http://www.w3.org/2000/svg">
<path d="M13.5417 22.75C7.85773 22.75 3.25 18.1423 3.25 12.4583C3.25 6.77439 7.85773 2.16666 13.5417 2.16666C19.2256 2.16666 23.8333 6.77439 23.8333 12.4583C23.8333 18.1423 19.2256 22.75 13.5417 22.75Z" stroke="white" stroke-width="1.5" stroke-linecap="round" stroke-linejoin="round"/>
<path d="M2.16666 23.8333L4.33333 21.6667" stroke="white" stroke-width="1.5" stroke-linecap="round" stroke-linejoin="round"/>
<g clip-path="url(#clip0_2399_2430)">
<path d="M13.5909 7.09091C15.79 7.09091 17.5795 8.89289 17.5795 11.1084C17.5795 14.2563 13.9658 17.5066 13.8121 17.6431C13.7513 17.6975 13.6726 17.7276 13.591 17.7277C13.5094 17.7278 13.4307 17.6978 13.3698 17.6435C13.216 17.5066 9.60227 14.2563 9.60227 11.1084C9.60227 8.89289 11.3918 7.09091 13.5909 7.09091ZM13.5909 13.2955C14.8128 13.2955 15.8068 12.3014 15.8068 11.0795C15.8068 9.8577 14.8128 8.86364 13.5909 8.86364C12.3691 8.86364 11.375 9.8577 11.375 11.0795C11.375 12.3014 12.3691 13.2955 13.5909 13.2955Z" fill="white"/>
</g>
<defs>
<clipPath id="clip0_2399_2430">
<rect width="10.6364" height="10.6364" fill="white" transform="matrix(-1 0 0 1 18.9091 7.09091)"/>
</clipPath>
</defs>
</svg>
