<svg width="16" height="16" viewBox="0 0 16 16" fill="none" xmlns="http://www.w3.org/2000/svg">
<path d="M3.03333 14.7167C3.03333 14.7874 3.00524 14.8552 2.95523 14.9053C2.90522 14.9553 2.83739 14.9834 2.76667 14.9834H0.266667C0.195942 14.9834 0.128115 14.9553 0.0781049 14.9053C0.0280952 14.8552 0 14.7874 0 14.7167C0 14.646 0.0280952 14.5781 0.0781049 14.5281C0.128115 14.4781 0.195942 14.45 0.266667 14.45H2.76667C2.83739 14.45 2.90522 14.4781 2.95523 14.5281C3.00524 14.5781 3.03333 14.646 3.03333 14.7167ZM6.2 2.95002C7.22927 2.95002 8.06667 3.78742 8.06667 4.81669V5.28336C8.06667 5.35408 8.03857 5.42191 7.98856 5.47192C7.93855 5.52193 7.87072 5.55002 7.8 5.55002H4.6C4.52928 5.55002 4.46145 5.52193 4.41144 5.47192C4.36143 5.42191 4.33333 5.35408 4.33333 5.28336V4.81669C4.33333 3.78742 5.17073 2.95002 6.2 2.95002ZM4.86667 4.81669V5.01669H7.53333V4.81669C7.53333 4.08149 6.9352 3.48336 6.2 3.48336C5.4648 3.48336 4.86667 4.08149 4.86667 4.81669ZM2.21667 13.9167C2.25172 13.9167 2.28642 13.9098 2.3188 13.8964C2.35118 13.8829 2.38059 13.8633 2.40536 13.8385C2.43013 13.8137 2.44976 13.7842 2.46314 13.7518C2.47652 13.7194 2.48338 13.6847 2.48333 13.6497L2.46933 3.22716C2.4681 2.30056 3.21757 1.55002 4.14423 1.55002H4.25847C4.79313 1.55002 5.28317 1.79636 5.6029 2.22586C5.64562 2.28125 5.70838 2.31765 5.77768 2.3272C5.84697 2.33675 5.91725 2.3187 5.97336 2.27693C6.02947 2.23516 6.06692 2.17302 6.07765 2.10389C6.08837 2.03477 6.07151 1.9642 6.0307 1.90739C5.6155 1.34969 4.95297 1.01672 4.25847 1.01672H4.14423C2.9226 1.01672 1.93437 2.00616 1.936 3.22789L1.95 13.6504C1.9501 13.721 1.97824 13.7888 2.02823 13.8387C2.07823 13.8886 2.14601 13.9167 2.21667 13.9167ZM14.8 10.2834V8.54459C14.8 7.75726 14.1594 7.11669 13.3721 7.11669H6.09457C5.30723 7.11669 4.66667 7.75726 4.66667 8.54459V9.18336C4.66667 9.25408 4.69476 9.32191 4.74477 9.37192C4.79478 9.42193 4.86261 9.45002 4.93333 9.45002C5.00406 9.45002 5.07189 9.42193 5.1219 9.37192C5.17191 9.32191 5.2 9.25408 5.2 9.18336V8.54459C5.2 8.05132 5.6013 7.65002 6.09457 7.65002H9.5V10.65C9.5 10.7207 9.5281 10.7886 9.5781 10.8386C9.62811 10.8886 9.69594 10.9167 9.76667 10.9167C9.83739 10.9167 9.90522 10.8886 9.95523 10.8386C10.0052 10.7886 10.0333 10.7207 10.0333 10.65V7.65002H13.3721C13.8654 7.65002 14.2667 8.05132 14.2667 8.54459V10.2904C13.6678 10.355 13.2 10.8633 13.2 11.479V11.7167C13.2 11.7874 13.2281 11.8552 13.2781 11.9053C13.3281 11.9553 13.3959 11.9834 13.4667 11.9834C13.5374 11.9834 13.6052 11.9553 13.6552 11.9053C13.7052 11.8552 13.7333 11.7874 13.7333 11.7167V11.479C13.7333 11.1138 14.0304 10.8167 14.3956 10.8167H14.8044C15.1696 10.8167 15.4667 11.1138 15.4667 11.479V13.7877C15.4667 14.1529 15.1696 14.4501 14.8044 14.4501H13.7333C13.7333 12.7047 13.7346 12.8121 13.731 12.7834C13.7514 12.6206 13.624 12.4834 13.4667 12.4834H7.5C7.42928 12.4834 7.36145 12.5115 7.31144 12.5615C7.26143 12.6115 7.23333 12.6793 7.23333 12.7501C7.23333 12.8208 7.26143 12.8886 7.31144 12.9386C7.36145 12.9886 7.42928 13.0167 7.5 13.0167H13.2V14.7167C13.2 14.7874 13.2281 14.8553 13.2781 14.9053C13.3281 14.9553 13.3959 14.9834 13.4667 14.9834H14.8044C15.4636 14.9834 16 14.447 16 13.7877V11.479C16 10.8284 15.474 10.2834 14.8 10.2834ZM12.1 14.45H4.729C4.3638 14.45 4.06667 14.1529 4.06667 13.7877V11.479C4.06667 11.1138 4.3638 10.8167 4.729 10.8167H5.1377C5.5029 10.8167 5.80003 11.1138 5.80003 11.479V12.9834C5.80003 13.0541 5.82813 13.1219 5.87814 13.1719C5.92815 13.2219 5.99598 13.25 6.0667 13.25C6.13742 13.25 6.20525 13.2219 6.25526 13.1719C6.30527 13.1219 6.33337 13.0541 6.33337 12.9834V11.479C6.33337 10.8197 5.797 10.2834 5.1377 10.2834H4.729C4.0697 10.2834 3.53333 10.8197 3.53333 11.479V13.7877C3.53333 14.447 4.0697 14.9834 4.729 14.9834H12.1C12.1707 14.9834 12.2386 14.9553 12.2886 14.9053C12.3386 14.8553 12.3667 14.7874 12.3667 14.7167C12.3667 14.646 12.3386 14.5781 12.2886 14.5281C12.2386 14.4781 12.1707 14.45 12.1 14.45Z" fill="#444444"/>
</svg>
