<svg width="14" height="14" viewBox="0 0 14 14" fill="none" xmlns="http://www.w3.org/2000/svg">
<g clip-path="url(#clip0_1488_3521)">
<path d="M13.7817 1.31603H11.1468C11.0257 1.31603 10.9277 1.41403 10.9277 1.53522V4.28097H8.42778C8.30681 4.28097 8.20859 4.37919 8.20859 4.50016V6.76203H5.65469C5.5335 6.76203 5.4355 6.86003 5.4355 6.98122V9.59769H2.98856C2.86737 9.59769 2.76937 9.69569 2.76937 9.81688V12.2535H0.219187C0.161055 12.2535 0.105304 12.2766 0.0641985 12.3177C0.0230929 12.3588 0 12.4146 0 12.4727C0 12.5309 0.0230929 12.5866 0.0641985 12.6277C0.105304 12.6688 0.161055 12.6919 0.219187 12.6919H2.98878C3.10997 12.6919 3.20797 12.5937 3.20797 12.4727V10.0358H5.65469C5.77566 10.0358 5.87388 9.93806 5.87388 9.81688V7.20041H8.42778C8.54897 7.20041 8.64697 7.10241 8.64697 6.98122V4.71934H11.1468C11.268 4.71934 11.366 4.62134 11.366 4.50016V1.75441H13.7817C13.811 1.75533 13.8403 1.75035 13.8677 1.73976C13.8951 1.72917 13.92 1.71318 13.9411 1.69275C13.9622 1.67231 13.979 1.64785 13.9904 1.6208C14.0019 1.59376 14.0078 1.5647 14.0078 1.53533C14.0078 1.50596 14.0019 1.47689 13.9904 1.44985C13.979 1.42281 13.9622 1.39835 13.9411 1.37791C13.92 1.35748 13.8951 1.34149 13.8677 1.33089C13.8403 1.3203 13.811 1.31532 13.7817 1.31625V1.31603ZM1.75044 5.24609C1.77814 5.24614 1.80558 5.24071 1.83118 5.23012C1.85678 5.21954 1.88004 5.204 1.89963 5.18441L5.02338 2.06066V4.16044C5.02338 4.22063 5.04729 4.27836 5.08985 4.32092C5.13241 4.36348 5.19014 4.38739 5.25033 4.38739C5.31052 4.38739 5.36825 4.36348 5.41081 4.32092C5.45337 4.27836 5.47728 4.22063 5.47728 4.16044V1.53544C5.47728 1.40988 5.37578 1.30859 5.25044 1.30859H2.62544C2.56527 1.30859 2.50758 1.33249 2.46503 1.37503C2.42249 1.41758 2.39859 1.47527 2.39859 1.53544C2.39859 1.5956 2.42249 1.6533 2.46503 1.69584C2.50758 1.73838 2.56527 1.76228 2.62544 1.76228H4.72522L1.60147 4.88603C1.57207 4.91555 1.55206 4.95311 1.54396 4.99398C1.53586 5.03485 1.54004 5.0772 1.55597 5.1157C1.5719 5.1542 1.59887 5.18713 1.63347 5.21033C1.66808 5.23353 1.70877 5.24598 1.75044 5.24609Z" fill="#444444"/>
</g>
<defs>
<clipPath id="clip0_1488_3521">
<rect width="14" height="14" fill="white"/>
</clipPath>
</defs>
</svg>
