<svg width="39" height="40" viewBox="0 0 39 40" fill="none" xmlns="http://www.w3.org/2000/svg">
<g clip-path="url(#clip0_724_11)">
<path d="M12.1887 29.0967C12.1887 30.3633 11.2981 31.2539 9.78694 31.3761V32.8804H8.95635V31.3646C7.99828 31.2527 7.10505 30.8239 6.41846 30.1464L7.06677 29.3735C7.70405 30.0105 8.56092 30.3795 9.46162 30.4048C10.3845 30.4048 11.0559 29.9434 11.0559 29.1682C11.0559 28.2776 10.3407 27.98 9.19399 27.6224C7.83506 27.1863 6.59842 26.7618 6.59842 25.2829C6.59842 24.0762 7.44054 23.1603 8.95635 23.0888V21.5176H9.78694V23.1326C10.5519 23.2675 11.2757 23.5761 11.9026 24.0347L11.2774 24.8053C10.6686 24.3603 9.9426 24.1036 9.18938 24.067C8.32188 24.067 7.7174 24.4731 7.7174 25.1998C7.7174 25.975 8.46954 26.2611 9.50546 26.6003C11.0328 27.0848 12.191 27.4909 12.191 29.0851L12.1887 29.0967Z" fill="#926B4F" stroke="#926B4F" stroke-width="0.5"/>
<path d="M9.3027 36.3527C7.49158 36.3527 5.72113 35.8157 4.21524 34.8095C2.70935 33.8032 1.53565 32.3731 0.842562 30.6998C0.149476 29.0266 -0.0318675 27.1854 0.321465 25.409C0.674797 23.6327 1.54693 22.0011 2.82759 20.7204C4.10825 19.4398 5.7399 18.5676 7.51622 18.2143C9.29254 17.861 11.1337 18.0423 12.807 18.7354C14.4803 19.4285 15.9104 20.6022 16.9166 22.1081C17.9228 23.614 18.4599 25.3844 18.4599 27.1955C18.4574 29.6234 17.4919 31.9512 15.7751 33.6679C14.0583 35.3847 11.7306 36.3503 9.3027 36.3527ZM9.3027 18.9635C7.67411 18.9635 6.08208 19.4465 4.72796 20.3512C3.37383 21.256 2.31842 22.5421 1.69518 24.0467C1.07195 25.5513 0.90888 27.207 1.2266 28.8043C1.54433 30.4016 2.32857 31.8688 3.48016 33.0204C4.63175 34.172 6.09896 34.9562 7.69626 35.2739C9.29356 35.5917 10.9492 35.4286 12.4538 34.8053C13.9585 34.1821 15.2445 33.1267 16.1493 31.7726C17.0541 30.4184 17.537 28.8264 17.537 27.1978C17.5346 25.0147 16.6662 22.9217 15.1225 21.378C13.5788 19.8343 11.4858 18.966 9.3027 18.9635ZM29.6981 22.7104C27.887 22.7104 26.1166 22.1733 24.6107 21.1671C23.1048 20.1609 21.9311 18.7307 21.238 17.0575C20.5449 15.3842 20.3636 13.543 20.7169 11.7667C21.0702 9.99039 21.9424 8.35873 23.223 7.07808C24.5037 5.79742 26.1353 4.92528 27.9117 4.57195C29.688 4.21862 31.5292 4.39996 33.2024 5.09305C34.8757 5.78614 36.3059 6.95983 37.3121 8.46573C38.3183 9.97162 38.8553 11.7421 38.8553 13.5532C38.8529 15.9811 37.8873 18.3088 36.1706 20.0256C34.4538 21.7424 32.126 22.7079 29.6981 22.7104ZM29.6981 5.32118C28.0696 5.32118 26.4775 5.80411 25.1234 6.70891C23.7693 7.61371 22.7139 8.89973 22.0906 10.4044C21.4674 11.909 21.3043 13.5646 21.6221 15.1619C21.9398 16.7592 22.724 18.2264 23.8756 19.378C25.0272 20.5296 26.4944 21.3139 28.0917 21.6316C29.689 21.9493 31.3447 21.7862 32.8493 21.163C34.3539 20.5398 35.6399 19.4844 36.5447 18.1302C37.4495 16.7761 37.9325 15.1841 37.9325 13.5555C37.93 11.3724 37.0617 9.27936 35.518 7.73565C33.9743 6.19195 31.8813 5.32362 29.6981 5.32118ZM32.9282 27.92L29.7281 24.7199L26.4658 27.9892L27.1141 28.6352L29.2321 26.5172V28.7021C29.2303 30.2093 28.6307 31.6542 27.565 32.7199C26.4993 33.7856 25.0544 34.3852 23.5472 34.387H18.1161V35.3099H23.5495C25.3013 35.308 26.9808 34.6117 28.2199 33.3734C29.459 32.1352 30.1565 30.4562 30.1596 28.7044V26.4526L32.2776 28.5706L32.9282 27.92ZM15.4513 5.64188C13.6992 5.64371 12.0193 6.34039 10.7801 7.57913C9.54098 8.81786 8.84371 10.4975 8.84126 12.2496V14.4991L6.72328 12.3811L6.07265 13.0341L9.27271 16.2341L12.5351 12.9695L11.8867 12.3165L9.76875 14.4345V12.2496C9.77058 10.7425 10.3701 9.29756 11.4358 8.23183C12.5016 7.16611 13.9465 6.56658 15.4536 6.56475H20.8847V5.64188H15.4513Z" fill="#926B4F" stroke="#926B4F" stroke-width="0.5"/>
<path d="M32.5007 16.5778C31.9727 17.0066 31.3401 17.2872 30.6678 17.3907C29.9956 17.4943 29.3078 17.417 28.6753 17.1668C28.0428 16.9167 27.4882 16.5027 27.0686 15.9673C26.6489 15.432 26.3793 14.7946 26.2875 14.1206H31.2664V13.0824H26.2852C26.3714 12.4398 26.6191 11.8296 27.0053 11.3089C27.3915 10.7882 27.9035 10.3739 28.4933 10.1049C29.0832 9.83593 29.7317 9.72097 30.378 9.77081C31.0244 9.82065 31.6476 10.0337 32.1893 10.3899L32.7476 9.53165C32.0492 9.07551 31.2455 8.80628 30.4133 8.74973C29.581 8.69319 28.7482 8.85123 27.9946 9.20872C27.241 9.56621 26.5917 10.1112 26.109 10.7914C25.6263 11.4717 25.3263 12.2645 25.2377 13.0939H23.9065V14.1322H25.2377C25.3341 15.0025 25.6631 15.8308 26.1903 16.5299C26.7175 17.2291 27.4234 17.7732 28.2337 18.1052C29.044 18.4371 29.9287 18.5446 30.7949 18.4163C31.6611 18.288 32.4767 17.9286 33.156 17.3761L32.5007 16.5778Z" fill="#926B4F" stroke="#926B4F" stroke-width="0.5"/>
</g>
<defs>
<clipPath id="clip0_724_11">
<rect width="39" height="39" fill="white" transform="translate(0 0.875)"/>
</clipPath>
</defs>
</svg>
